<?xml version="1.0" encoding="utf-8"?>
<!-- Svg Vector Icons : http://www.onlinewebfonts.com/icon -->
<!DOCTYPE svg PUBLIC "-//W3C//DTD SVG 1.1//EN" "http://www.w3.org/Graphics/SVG/1.1/DTD/svg11.dtd">
<svg version="1.1" xmlns="http://www.w3.org/2000/svg" xmlns:xlink="http://www.w3.org/1999/xlink" x="0px" y="0px" viewBox="0 0 1000 1000" enable-background="new 0 0 1000 1000" xml:space="preserve">
<metadata> Svg Vector Icons : http://www.onlinewebfonts.com/icon </metadata>
<g><g><g><path d="M686.1,436.8v-172c0-34.9-28.3-63.2-63.2-63.2H90.1C55.2,201.7,27,230,27,264.9v172c0,34.9,28.3,63.2,63.2,63.2h532.7C657.8,500,686.1,471.8,686.1,436.8z M206.2,402.4c13.6,0,24.2-2.3,32.9-5.7l6.8,42.5c-10.2,4.5-29.5,8.3-51.5,8.3c-59.9,0-98.2-36.4-98.2-94.7c0-54.2,37.1-98.5,106.1-98.5c15.2,0,31.8,2.6,44,7.2l-9.1,42.8c-6.8-3.1-17.1-5.7-32.2-5.7c-30.3,0-50,21.6-49.6,51.9C155.4,384.6,178.2,402.4,206.2,402.4z M327.1,447.5c-24.2,0-45.8-5.3-59.9-12.9l10.2-41.3c10.6,6.4,32.6,14,49.6,14c17.4,0,24.7-6.1,24.7-15.6c0-9.4-5.7-14-27.3-21.2c-38.2-12.9-53-33.7-52.6-55.8c0-34.5,29.5-60.6,75.4-60.6c21.7,0,40.9,5,52.3,10.6l-10.2,39.8c-8.4-4.6-24.3-10.6-40.2-10.6c-14,0-22,5.7-22,15.2c0,8.7,7.2,13.3,29.9,21.2c35.3,12.1,50,29.9,50.4,57.2C407.5,422.1,380.2,447.5,327.1,447.5z M547.8,443.7h-57.6l-67.5-185.3h62.5l25,86c4.5,15.5,8,30.4,10.6,45.1h1.2c3.1-15.2,6.1-29.2,10.2-45.1l23.9-86h60.6L547.8,443.7z"/><path d="M946.8,10H259c-14.5,0-26.3,11.8-26.3,26.3v125.8h79V75.9h578.5v618.9l-156.9-0.1c-7.8,0-15.2,3.1-20.7,8.7c-5.5,5.4-8.5,12.8-8.5,20.6l0.6,196.4H311.7V538.5h-79v425.2c0,14.5,11.8,26.3,26.3,26.3h513c7.5,0,14.6-3.3,19.6-8.8l174.8-195.8c4.3-4.8,6.6-11,6.6-17.5V36.3C973.1,21.8,961.3,10,946.8,10z"/></g></g><g></g><g></g><g></g><g></g><g></g><g></g><g></g><g></g><g></g><g></g><g></g><g></g><g></g><g></g><g></g></g>
</svg>