<?xml version="1.0" encoding="utf-8"?>
<!DOCTYPE svg PUBLIC "-//W3C//DTD SVG 1.1//EN" "http://www.w3.org/Graphics/SVG/1.1/DTD/svg11.dtd">
<svg version="1.1" xmlns="http://www.w3.org/2000/svg" xmlns:xlink="http://www.w3.org/1999/xlink" x="0px" y="0px" viewBox="0 0 1000 1000" enable-background="new 0 0 1000 1000" xml:space="preserve">
<g>
    <path d="M290,215.1h420v70H290V215.1L290,215.1z"/>
    <path d="M290,355.1h420v70H290V355.1L290,355.1z"/>
    <path d="M290,495.1h280v70H290V495.1L290,495.1z"/>
    <path d="M570,495.1h140v70H570V495.1L570,495.1z"/>
    <path d="M710,215.1h70v350h-70V215.1L710,215.1z"/>
    <path d="M570,215.1h70v280h-70L570,215.1L570,215.1z"/>
    <path d="M360,215.1h70v280h-70V215.1z"/>
    <path d="M220,215.1h70v350h-70V215.1L220,215.1z"/>
    <path d="M430,635.1h140v210H430V635.1L430,635.1z"/>
    <path d="M619.4,845.1c19.8,0,26.5-4.2,15,9.9L521,986c-11.6,14.1-30.5,10.2-42-3.9L365.7,857c-11.5-14.1-4.8-11.9,14.9-11.9H619.4z"/>
    <path d="M220,915.1c-115.8,0-210-94.2-210-210v-490c0-115.8,94.2-210,210-210h560c115.8,0,210,94.2,210,210v490c0,115.8-94.2,210-210,210v-140c38.6,0,70-31.4,70-70v-490c0-38.6-31.4-70-70-70H220c-38.6,0-70,31.4-70,70v490c0,38.6,31.4,70,70,70V915.1L220,915.1z"/>
    <path d="M710,775.1h70v140h-70V775.1L710,775.1z"/>
    <path d="M220,775.1h70v140h-70V775.1L220,775.1z"/>
</g>
</svg>